<?xml version="1.0" encoding="utf-8"?>
<!-- Generator: Adobe Illustrator 18.1.1, SVG Export Plug-In . SVG Version: 6.00 Build 0)  -->
<svg version="1.1" xmlns="http://www.w3.org/2000/svg" xmlns:xlink="http://www.w3.org/1999/xlink" x="0px" y="0px"
	 viewBox="0 0 669 521" enable-background="new 0 0 669 521" xml:space="preserve">
<g id="Capa_1" display="none">
	<path display="inline" fill="#F3CB05" d="M439,475H83V166.5C83,92.8,142.8,33,216.5,33H524v357C524,436.9,485.9,475,439,475z"/>
	<g display="inline">
		<path fill="#FFFFFF" stroke="#FFFFFF" stroke-width="9" stroke-miterlimit="10" d="M246.9,275.1c-1.5-5.5-2.3-11.2-2.3-17.1
			c0-4.3,0.4-8.5,1.2-12.6c-13.4-6.8-25.6-15.7-36.2-26.2c-36.1,0-72.2,13.8-99.8,41.3l0,0l0,0c27.6,27.6,63.7,41.3,99.8,41.3
			C220.5,291,233.1,282,246.9,275.1z"/>
		<path fill="#FFFFFF" stroke="#FFFFFF" stroke-width="9" stroke-miterlimit="10" d="M509.1,260.5L509.1,260.5
			c-27.6-27.6-63.7-41.3-99.8-41.3c-10.5,10.5-22.7,19.4-36.2,26.2c0.8,4.1,1.2,8.3,1.2,12.6c0,5.9-0.8,11.7-2.3,17.1
			c13.8,6.9,26.4,15.9,37.2,26.7C445.4,301.8,481.5,288.1,509.1,260.5L509.1,260.5z"/>
		<path fill="#FFFFFF" stroke="#FFFFFF" stroke-width="9" stroke-miterlimit="10" d="M293.5,195.1c5.1-1.3,10.5-2,16-2
			s10.9,0.7,16,2c6.7-12.7,15.2-24.3,25.3-34.4c0-36.1-13.8-72.2-41.3-99.8l0,0l0,0c-27.6,27.6-41.3,63.7-41.3,99.8
			C278.2,170.8,286.8,182.4,293.5,195.1z"/>
		<path fill="#FFFFFF" stroke="#FFFFFF" stroke-width="9" stroke-miterlimit="10" d="M276.1,313.6c-8.1-4.9-15.1-11.5-20.4-19.4
			c-14.9,5.1-30.4,7.7-45.9,7.7c-25.5,25.5-41.3,60.8-41.3,99.8v0h0c39,0,74.2-15.8,99.8-41.3C268.2,344.5,270.8,328.7,276.1,313.6z
			"/>
		<path fill="#FFFFFF" stroke="#FFFFFF" stroke-width="9" stroke-miterlimit="10" d="M344.3,203.3c8.9,5.7,16.4,13.5,21.6,22.7
			c14.1-4.5,28.7-6.8,43.4-6.8c25.5-25.5,41.3-60.8,41.3-99.8v0h0c-39,0-74.2,15.8-99.8,41.3C350.8,175.1,348.6,189.4,344.3,203.3z"
			/>
		<path fill="#FFFFFF" stroke="#FFFFFF" stroke-width="9" stroke-miterlimit="10" d="M309.5,260.5L309.5,260.5L309.5,260.5
			c16.6-16.6,28.2-36.3,34.8-57.2c-5.7-3.6-12-6.4-18.8-8.1C315.3,214.7,309.5,236.9,309.5,260.5c0-23.6-5.8-45.8-16-65.4
			c-6.7,1.7-13,4.5-18.8,8.1C281.3,224.2,292.9,243.9,309.5,260.5c-16.4-16.4-35.8-27.9-56.4-34.5c-3.4,5.9-5.9,12.5-7.2,19.4
			C265,255,286.6,260.5,309.5,260.5c-22.5,0-43.7,5.3-62.6,14.6c1.9,6.9,4.8,13.3,8.7,19.1C275.3,287.4,293.8,276.2,309.5,260.5
			c-15.5,15.5-26.6,33.7-33.4,53.1c6,3.6,12.6,6.3,19.6,7.8C304.6,302.9,309.5,282.3,309.5,260.5L309.5,260.5
			c0,21.8,4.9,42.4,13.8,60.9c7-1.5,13.7-4.2,19.6-7.8C336.1,294.2,325,276,309.5,260.5c15.7,15.7,34.2,26.9,53.8,33.7
			c3.9-5.8,6.8-12.2,8.7-19.1C353.2,265.8,332,260.5,309.5,260.5c22.9,0,44.5-5.5,63.6-15.1c-1.4-6.9-3.8-13.5-7.2-19.4
			C345.3,232.6,325.9,244.1,309.5,260.5z"/>
		<path fill="#FFFFFF" stroke="#FFFFFF" stroke-width="9" stroke-miterlimit="10" d="M363.3,294.2c-5.3,7.9-12.3,14.5-20.4,19.4
			c5.3,15.1,7.9,30.9,7.9,46.7c25.5,25.5,60.8,41.3,99.8,41.3h0v0c0-39-15.8-74.2-41.3-99.8C393.7,301.8,378.2,299.3,363.3,294.2z"
			/>
		<path fill="#FFFFFF" stroke="#FFFFFF" stroke-width="9" stroke-miterlimit="10" d="M253.1,226c5.2-9.2,12.7-17,21.6-22.7
			c-4.4-13.8-6.5-28.2-6.5-42.5c-25.5-25.5-60.8-41.3-99.8-41.3h0v0c0,39,15.8,74.2,41.3,99.8C224.4,219.2,239,221.4,253.1,226z"/>
		<path fill="#FFFFFF" stroke="#FFFFFF" stroke-width="9" stroke-miterlimit="10" d="M323.3,321.4c-4.4,1-9,1.5-13.8,1.5
			s-9.3-0.5-13.8-1.5c-7,14.5-16.3,27.7-27.6,38.9c0,36.1,13.8,72.2,41.3,99.8l0,0l0,0c27.6-27.6,41.3-63.7,41.3-99.8
			C339.6,349,330.2,335.9,323.3,321.4z"/>
	</g>
</g>
<g id="Capa_2">
	<path fill="#F2E000" d="M587.1,5H230.6C145.1,5,75.8,74.3,75.8,159.7v357.7L587.1,5z"/>
	<path fill="#F3CB05" d="M587.1,5v413.9c0,54.4-44.1,98.5-98.5,98.5H75.8L587.1,5z"/>
	<g>
		<g>
			<path fill="#FFFFFF" stroke="#FFFFFF" stroke-width="9" stroke-miterlimit="10" d="M265.9,270.2c-1.7-6.3-2.7-13-2.7-19.8
				c0-5,0.5-9.9,1.4-14.6c-15.6-7.9-29.7-18.2-41.9-30.4c-41.9,0-83.7,16-115.7,47.9l0,0l0,0c31.9,31.9,73.8,47.9,115.7,47.9
				C235.3,288.6,249.8,278.1,265.9,270.2z"/>
			<path fill="#FFFFFF" stroke="#FFFFFF" stroke-width="9" stroke-miterlimit="10" d="M569.8,253.2L569.8,253.2
				c-31.9-31.9-73.8-47.9-115.7-47.9c-12.2,12.2-26.4,22.5-41.9,30.4c0.9,4.7,1.4,9.6,1.4,14.6c0,6.9-0.9,13.5-2.7,19.8
				c16,8,30.6,18.5,43.1,31C495.9,301.1,537.8,285.2,569.8,253.2L569.8,253.2z"/>
			<path fill="#FFFFFF" stroke="#FFFFFF" stroke-width="9" stroke-miterlimit="10" d="M319.8,177.4c5.9-1.5,12.2-2.3,18.6-2.3
				c6.4,0,12.6,0.8,18.6,2.3c7.7-14.8,17.6-28.2,29.3-39.9c0-41.9-16-83.7-47.9-115.7l0,0l0,0c-31.9,31.9-47.9,73.8-47.9,115.7
				C302.2,149.2,312.1,162.7,319.8,177.4z"/>
			<path fill="#FFFFFF" stroke="#FFFFFF" stroke-width="9" stroke-miterlimit="10" d="M299.7,314.8c-9.4-5.7-17.5-13.4-23.7-22.5
				c-17.2,5.9-35.2,8.9-53.3,8.9c-29.6,29.6-47.9,70.5-47.9,115.7v0h0c45.2,0,86.1-18.3,115.7-47.9
				C290.5,350.6,293.5,332.3,299.7,314.8z"/>
			<path fill="#FFFFFF" stroke="#FFFFFF" stroke-width="9" stroke-miterlimit="10" d="M378.7,186.9c10.4,6.6,19,15.6,25.1,26.3
				c16.3-5.3,33.3-7.9,50.3-7.9c29.6-29.6,47.9-70.5,47.9-115.7v0h0c-45.2,0-86.1,18.3-115.7,47.9
				C386.3,154.2,383.8,170.9,378.7,186.9z"/>
			<path fill="none" stroke="#FFFFFF" stroke-width="9" stroke-miterlimit="10" d="M338.4,253.2L338.4,253.2L338.4,253.2
				c19.2-19.2,32.7-42.1,40.3-66.4c-6.6-4.2-13.9-7.4-21.7-9.4C345.1,200.1,338.4,225.9,338.4,253.2c0-27.4-6.7-53.1-18.6-75.8
				c-7.8,2-15.1,5.2-21.7,9.4C305.7,211.1,319.2,234,338.4,253.2c-19-19-41.5-32.3-65.4-40c-3.9,6.9-6.8,14.5-8.4,22.5
				C286.8,246.9,311.9,253.2,338.4,253.2c-26.1,0-50.7,6.1-72.5,16.9c2.2,8,5.6,15.4,10.1,22.1C298.8,284.4,320.2,271.4,338.4,253.2
				c-18,18-30.9,39.1-38.7,61.5c6.9,4.2,14.6,7.3,22.8,9C332.7,302.4,338.4,278.5,338.4,253.2L338.4,253.2c0,25.3,5.7,49.2,16,70.6
				c8.2-1.8,15.8-4.8,22.8-9C369.3,292.3,356.4,271.2,338.4,253.2c18.2,18.2,39.6,31.2,62.4,39c4.5-6.7,7.9-14.1,10.1-22.1
				C389.1,259.3,364.4,253.2,338.4,253.2c26.5,0,51.6-6.3,73.8-17.5c-1.6-8-4.5-15.6-8.4-22.5C379.9,220.9,357.4,234.2,338.4,253.2z
				"/>
			<path fill="#FFFFFF" stroke="#FFFFFF" stroke-width="9" stroke-miterlimit="10" d="M400.8,292.3c-6.1,9.1-14.2,16.8-23.7,22.5
				c6.1,17.5,9.2,35.8,9.2,54.1c29.6,29.6,70.5,47.9,115.7,47.9h0v0c0-45.2-18.3-86.1-47.9-115.7C436.1,301.1,418,298.2,400.8,292.3
				z"/>
			<path fill="#FFFFFF" stroke="#FFFFFF" stroke-width="9" stroke-miterlimit="10" d="M273,213.2c6.1-10.7,14.7-19.7,25.1-26.3
				c-5.1-16-7.6-32.7-7.6-49.3C260.9,108,220,89.6,174.8,89.6h0v0c0,45.2,18.3,86.1,47.9,115.7C239.7,205.3,256.7,207.9,273,213.2z"
				/>
			<path fill="#FFFFFF" stroke="#FFFFFF" stroke-width="9" stroke-miterlimit="10" d="M354.4,323.8c-5.1,1.1-10.5,1.7-16,1.7
				s-10.8-0.6-16-1.7c-8.1,16.8-18.9,32.1-31.9,45.1c0,41.9,16,83.7,47.9,115.7l0,0l0,0c31.9-31.9,47.9-73.8,47.9-115.7
				C373.3,355.9,362.4,340.6,354.4,323.8z"/>
		</g>
		<polygon fill="#FFFFFF" stroke="#FFFFFF" stroke-width="9" stroke-miterlimit="10" points="569.8,253.3 566.7,250.8 566.7,255.7 
					"/>
		<polygon fill="#FFFFFF" stroke="#FFFFFF" stroke-width="9" stroke-miterlimit="10" points="338.3,483.6 340.8,480.5 336,480.5 		
			"/>
	</g>
</g>
</svg>
